<?xml version="1.0" encoding="utf-8"?>
<!-- Generator: Adobe Illustrator 19.0.0, SVG Export Plug-In . SVG Version: 6.00 Build 0)  -->
<svg version="1.1" id="圖層_1" xmlns="http://www.w3.org/2000/svg" xmlns:xlink="http://www.w3.org/1999/xlink" x="0px" y="0px"
	 viewBox="0 0 621 621" style="enable-background:new 0 0 621 621;" xml:space="preserve">
<style type="text/css">
	.st0{fill:#040000;stroke:#000000;stroke-miterlimit:10;}
	.st1{fill:#FFFFFF;stroke:#000000;stroke-miterlimit:10;}
	.st2{stroke:#000000;stroke-miterlimit:10;}
</style>
<circle id="XMLID_1_" class="st0" cx="310.5" cy="310.5" r="310"/>
<path id="XMLID_4_" class="st1" d="M164.1,196.3c-0.2,0-0.3,0-0.5-0.1c-26.1-3.2-51.7,24.7-69.6,41c0,0-10,4.7-10.7,21.3
	s0,140.7,0,140.7s-5.3,20,17.3,21.3c21.6,1.3,44.6,2.1,66.2,0.8c15.3-0.9,27.4-12.5,38.7-21.5c4.2-3.4,20.8-20.1,25.8-19.2
	c0,0,39.9,6.7,73.3,25.3c33.4,18.7,81.4,58.7,81.4,58.7s36,36.7,72,20.7s52.7-52,52.7-52s18.7-28.7,26-98
	c7.3-69.3-16-125.2-16-125.3c-10.7-25.7-24.1-52.8-48-69.3c-36.9-25.5-78.9,6.7-108.1,29.2c-31.4,24.2-62.4,50.7-101,62.4
	c-10.3,3.1-21,6.5-31.6,8.5c-4-10.1,1.2-21.3-1.9-31.2C223.6,188.4,179.6,198.1,164.1,196.3z"/>
<path id="XMLID_5_" class="st2" d="M152.1,211.9c-8.3,3.5-15.9,8.9-22.8,14.7c-1.2,1-15,14.2-13.2,14.7c2.7,0.7,23.3,0,23.3,0
	l23.3,0.3l28.7-21.6c0,0,14.7-9.3,0-10.7c-14.7-1.3-34.6,0.7-34.6,0.7S152.1,211.9,152.1,211.9z"/>
<path id="XMLID_7_" class="st2" d="M136.7,261.9h-28c0,0-6.7,0.7-6.7,14c0,13.2,0,90.2,0,91.3c0,8.3-1.6,19.8,3.5,27
	c5.5,7.6,15.1,6.6,23.3,6.2c10.8-0.5,21.8,0.1,32.3-2.6c1.5-14.3-0.9-29.2-1.2-43.6c-0.4-16.1,0.4-32.1,0.5-48.2
	c0.1-10.7-0.6-21,0.1-31.6c0.4-6.6,0-12.5-8.6-12.5C140.1,261.9,136.7,261.9,136.7,261.9z"/>
<path id="XMLID_6_" class="st2" d="M208.1,261.9c0,0-22,26.7-17.3,56c4.7,29.3,20.7,44.3,20.7,44.3s67.3,3.7,116.7,41.1
	c49.3,37.3,36,27.4,36,27.3c-5.1-3.8-8.1-20.4-10.1-26.3c-5.1-15.2-8.9-30.8-11.2-46.6c-4.7-32.1-3.7-64.7,0.4-96.8
	c3.1-24.4,10.9-49.9,22.5-71.6c0,0-39.7,32-61,44s-62.6,22.7-62.6,22.7L208.1,261.9z"/>
<path id="XMLID_8_" class="st2" d="M370.1,278.6c0,0,0.2,46.6,0,50.6c-0.3,6.2,0,21.7,0,21.7s16.8-1.7,23.1-4.3
	c10.8-4.6,22.8-7.4,34.2-9.9c12-2.7,20.7-5.5,20.7-5.5s-12-9.5-7.3-31s7.3-17.5,7.3-17.5l-64-4H370.1z"/>
<path id="XMLID_10_" class="st2" d="M402.1,261.9c0,0,13.3-33.6,29.3-53.1c16-19.5,42-26.2,46-24.9c4,1.3,10.7-1.3,18.7,13.3
	c8,14.7,34.7,94.3,19.3,156.5s-23.3,83.5-50,104.2c-26.7,20.7-58-10.7-60-14c-2-3.3-16.7-26.7-20.7-40c-4-13.3-12-32-8.7-32
	c3.3,0,62.7-21.3,62.7-21.3s25.9-9.3,26-9.3c24.3-8.7,22.7-51.6,8.3-67c-9-9.6-26.2-8.3-39.1-10.3
	C431,263.5,403.3,258.7,402.1,261.9z"/>
<g id="XMLID_21_">
</g>
<g id="XMLID_22_">
</g>
<g id="XMLID_23_">
</g>
<g id="XMLID_24_">
</g>
<g id="XMLID_25_">
</g>
<g id="XMLID_26_">
</g>
</svg>
